<svg width="588" height="310" viewBox="0 0 588 310" fill="none" xmlns="http://www.w3.org/2000/svg">
<rect width="588" height="310" fill="#030303"/>
<path d="M32.8684 32.0001H43.5852V42.9547H53.4634V32.0001H64.1802V65.152H53.4634V54.1014H43.6784V65.152H32.8684M78.3451 43.0508H68.8863V32.0001H98.5673V43.0508H89.0619V65.152H78.3451M103.273 32.0001H114.503L121.399 43.6754L128.295 32.0001H139.524V65.152H128.807V48.7202L121.306 60.6357L113.804 48.7202V65.152H103.273M144.836 32.0001H155.553V54.1975H170.743V65.152H144.836" fill="#FDFDFD"/>
<path d="M32.4923 258.301L17.116 80.338H186.162L170.786 258.205L101.499 278" fill="#E44D26"/>
<path d="M101.639 262.862V94.9408H170.739L157.553 246.767" fill="#F16529"/>
<path d="M48.5215 116.708H101.64V138.521H71.7258L73.6828 160.862H101.64V182.627H54.2993M55.2312 193.582H76.4785L77.9695 211.022L101.64 217.557V240.331L58.2132 227.839" fill="#EBEBEB"/>
<path d="M154.577 116.708H101.552V138.521H152.62M150.71 160.862H101.552V182.675H127.645L125.176 211.022L101.552 217.557V240.234L144.885 227.839" fill="white"/>
<path d="M371.18 80.3453L355.782 258.214L286.568 278L217.544 258.242L202.162 80.3453H371.18Z" fill="#264DE4"/>
<path d="M342.602 246.885L355.761 94.8881H286.674V262.873L342.602 246.885Z" fill="#2965F1"/>
<path d="M237.427 160.868L239.323 182.686H286.674V160.868H237.427Z" fill="#EBEBEB"/>
<path d="M286.674 116.71H286.601H233.616L235.54 138.528H286.674V116.71Z" fill="#EBEBEB"/>
<path d="M286.675 240.238V217.538L286.582 217.564L263.017 211.003L261.511 193.602H250.06H240.27L243.235 227.859L286.578 240.266L286.675 240.238Z" fill="#EBEBEB"/>
<path d="M241.943 32H267.57V43.0507H252.66V54.1015H267.57V65.1522H241.943V32Z" fill="#FDFDFD"/>
<path d="M272.695 32H298.323V41.6093H283.412V43.5312H298.323V65.6327H272.695V55.5429H287.606V53.621H272.695V32Z" fill="#FDFDFD"/>
<path d="M303.447 32H329.075V41.6093H314.164V43.5312H329.075V65.6327H303.447V55.5429H318.358V53.621H303.447V32Z" fill="#FDFDFD"/>
<path d="M312.658 182.688L310.202 210.985L286.603 217.553V240.252L329.981 227.856L330.299 224.169L335.271 166.729L335.787 160.87L339.607 116.71H286.603V138.528H316.419L314.493 160.87H286.603V182.688H312.658Z" fill="white"/>
<path d="M388.289 80.0723L388.318 82.2706C388.333 83.4798 392 123.513 396.465 171.232L404.584 257.995L441.074 267.757C461.143 273.125 477.978 277.545 478.484 277.579C478.99 277.613 496.047 273.238 516.388 267.856C549.001 259.228 553.404 257.929 553.638 256.861C553.963 255.373 569.934 83.233 569.917 81.3913L569.906 80.0723H479.097H388.289Z" fill="white"/>
<path d="M441.368 268.34L404.554 258.508L404.073 255.907C403.645 253.594 387.681 83.2307 387.681 80.9797C387.681 80.165 397.002 80.0725 479.103 80.0725C565.765 80.0725 570.524 80.1259 570.518 81.0984C570.489 85.2988 553.964 257.918 553.558 258.262C553.045 258.696 481.791 277.663 479.41 277.999C478.735 278.094 461.616 273.748 441.368 268.34ZM502.316 233.6C514.69 230.339 524.992 227.503 525.211 227.298C525.429 227.093 526.877 213.075 528.428 196.147C529.98 179.22 531.406 164.249 531.597 162.878L531.945 160.387H505.217H478.489V171.232V182.077H492.92H507.35L507.063 183.396C506.905 184.122 506.292 190.356 505.7 197.251C505.072 204.556 504.328 210.067 503.916 210.46C503.528 210.832 497.648 212.552 490.85 214.283L478.489 217.431V228.48C478.489 236.021 478.7 239.529 479.154 239.529C479.519 239.529 489.942 236.861 502.316 233.6ZM531.593 146.757C531.188 143.884 527.575 105.356 527.575 103.903C527.575 103.02 525.451 102.936 503.339 102.936H479.103V114.277V125.617L489.994 126.019C495.984 126.239 502.288 126.575 504.002 126.765L507.12 127.11L507.877 135.981C508.293 140.86 508.789 145.841 508.979 147.05L509.325 149.248H520.635H531.945L531.593 146.757Z" fill="#EAEBEC"/>
<path d="M441.074 267.756L404.584 257.995L396.465 171.232C392 123.513 388.333 83.48 388.318 82.2709L388.289 80.0725H479.097H569.906L569.918 81.3915C569.934 83.2333 553.963 255.373 553.638 256.861C553.404 257.929 549.002 259.229 516.388 267.857C496.047 273.238 478.99 277.613 478.484 277.579C477.978 277.545 461.143 273.125 441.074 267.756ZM502.338 234.015C514.952 230.664 525.452 227.646 525.671 227.308C525.889 226.969 527.396 212.235 529.019 194.566C530.642 176.896 532.103 161.977 532.265 161.413C532.544 160.443 530.398 160.387 493.374 160.387H454.187L455.856 143.533C456.773 134.263 457.546 126.654 457.573 126.625C457.6 126.596 463.352 126.42 470.354 126.235C481.836 125.932 505.514 126.807 506.306 127.564C506.602 127.847 508.549 146.097 508.549 148.588C508.549 149.816 508.722 149.835 520.438 149.835H532.327L532.047 147.343C531.893 145.973 530.886 135.355 529.809 123.747L527.851 102.643L481.999 102.492C445.522 102.373 436.146 102.493 436.142 103.079C436.139 103.484 435.872 106.057 435.548 108.798C434.764 115.43 428.785 179.508 428.785 181.278V182.664H467.8H506.816L506.468 184.862C506.277 186.071 505.67 192.205 505.12 198.492C504.57 204.779 503.943 210.086 503.727 210.285C503.155 210.809 480.203 216.667 478.772 216.654C478.107 216.648 472.179 215.235 465.599 213.514L453.634 210.385L453.195 205.464C452.954 202.758 452.587 198.895 452.38 196.88L452.003 193.216H440.394H428.785L428.81 195.414C428.858 199.526 431.649 227.218 432.054 227.605C432.522 228.053 477.111 240.029 478.484 240.075C478.99 240.093 489.725 237.365 502.338 234.015Z" fill="#F0BE25"/>
<path d="M440.568 268.147L403.661 258.36L395.45 171.368C390.933 123.522 387.225 83.3839 387.209 82.1715L387.18 79.9673H479.026H570.872L570.884 81.2899C570.9 83.1365 554.747 255.732 554.418 257.224C554.182 258.294 549.729 259.597 516.743 268.248C496.169 273.644 478.917 278.03 478.405 277.996C477.893 277.962 460.866 273.53 440.568 268.147ZM509.394 255.054C525.629 250.811 539.217 247.042 539.59 246.678C540.17 246.112 554.191 100.56 554.135 95.6906L554.116 94.0742H516.571H479.026V98.1887V102.303H457.305C440.346 102.303 435.584 102.464 435.58 103.038C435.577 103.442 435.307 106.021 434.979 108.769C434.186 115.418 428.138 179.666 428.138 181.44V182.83H453.582H479.026V199.876C479.026 213.126 478.853 216.919 478.25 216.91C477.823 216.904 472.029 215.487 465.373 213.762L453.272 210.624L452.828 205.691C452.584 202.977 452.213 199.104 452.003 197.084L451.621 193.41H439.88H428.138L428.164 195.614C428.238 201.919 431.118 227.654 431.793 228.049C432.204 228.29 442.999 231.228 455.783 234.578L479.026 240.67V251.719C479.026 257.797 479.217 262.769 479.451 262.769C479.684 262.769 493.159 259.297 509.394 255.054ZM455.453 143.753C456.345 134.546 457.197 126.908 457.346 126.781C457.494 126.653 462.433 126.423 468.321 126.269L479.026 125.988V143.241V160.494H466.428H453.831L455.453 143.753Z" fill="#E4A126"/>
<path d="M445.969 60.0636V54.4944H454.252H462.535V42.8455V32.0001H468.364H474.193V48.4147V65.6329H460.081H445.969V60.0636Z" fill="#FDFDFD"/>
<path d="M480.073 32.0001H507.731V41.6095H491.639V43.5314H507.731V65.6329H480.073V54.5501H496.165V52.5001H480.073V32.0001Z" fill="#FDFDFD"/>
</svg>
